<?xml version="1.0" encoding="utf-8"?>
<!-- Generator: Adobe Illustrator 16.0.0, SVG Export Plug-In . SVG Version: 6.00 Build 0)  -->
<!DOCTYPE svg PUBLIC "-//W3C//DTD SVG 1.1//EN" "http://www.w3.org/Graphics/SVG/1.1/DTD/svg11.dtd">
<svg version="1.1" id="Layer_1" xmlns="http://www.w3.org/2000/svg" xmlns:xlink="http://www.w3.org/1999/xlink" x="0px" y="0px"
	 width="512px" height="512px" viewBox="-828.505 1048.5 512 512" enable-background="new -828.505 1048.5 512 512"
	 xml:space="preserve">
<circle fill-rule="evenodd" clip-rule="evenodd" fill="#2F2BAD" cx="-572.505" cy="1304.499" r="256"/>
<g>
	<path fill-rule="evenodd" clip-rule="evenodd" fill="#FFFFFF" d="M-422.505,1431.393c-1.308,2.465-2.254,5.232-3.999,7.335
		c-3.802,4.582-10.156,6.032-15.721,3.927c-5.83-2.206-9.394-6.463-9.639-12.726c-0.558-14.238-0.856-28.489-1.138-42.737
		c-0.144-7.31-0.025-14.624-0.025-22.185c-1.772-0.081-2.818-0.17-3.864-0.171c-36.899-0.007-73.799,0.004-110.699-0.016
		c-4.467-0.002-9.014,0.342-13.385-0.352c-8.649-1.372-14.882-7.268-15.431-14.205c-0.76-9.619,3.629-16.819,11.612-22.998
		c0,3.176-0.003,5.742,0,8.31c0.002,2.343-0.062,4.688,0.032,7.028c0.265,6.585,5.449,11.593,11.933,11.602
		c6.695,0.01,11.95-4.993,12.057-11.734c0.118-7.507,0.026-15.016,0.026-22.979c4.3-0.573,8.492-1.306,12.714-1.66
		c13.436-1.127,26.731,0.211,39.833,3.117c7.599,1.686,13.925,5.488,17.393,13.015c0.349,0.758,1.98,1.299,3.02,1.305
		c15.619,0.082,31.237,0.054,46.856,0.059c10.419,0.003,16.334,5.786,16.574,16.196c0.466,20.201,0.92,40.402,1.406,60.603
		c0.037,1.542,0.292,3.079,0.445,4.619C-422.505,1421.627-422.505,1426.51-422.505,1431.393z"/>
	<path fill-rule="evenodd" clip-rule="evenodd" fill="#FFFFFF" d="M-662.133,1165.4c1.314,0.335,2.631,0.66,3.941,1.007
		c12.594,3.329,21.256,15.442,19.89,27.81c-1.534,13.893-12.372,24.149-25.832,24.45c-13.276,0.296-24.597-9.097-26.829-22.261
		c-2.4-14.157,6.898-27.555,21.086-30.403c0.643-0.129,1.257-0.399,1.885-0.603C-666.039,1165.4-664.086,1165.4-662.133,1165.4z"/>
	<path fill-rule="evenodd" clip-rule="evenodd" fill="#FFFFFF" d="M-672.418,1244.542c-2.015-2.544-4.209-4.968-6.008-7.657
		c-4.164-6.224-11.03-8.142-16.943-4.518c-5.942,3.642-7.456,10.999-3.434,17.402c4.84,7.708,11.113,14.139,18.618,19.205
		c2.773,1.872,3.093,3.731,2.617,6.702c-1.612,10.03-2.717,20.127-1.589,30.305c0.255,2.297,0.791,4.603,1.5,6.806
		c12.863,40.027,13.013,79.944-0.969,119.742c-2.757,7.849-9.367,12.103-16.559,10.834c-9.37-1.651-14.843-10.567-11.607-19.533
		c7.121-19.733,10.03-40.042,8.885-60.951c-0.647-11.828-2.66-23.437-5.949-34.811c-0.248-0.855-1.11-1.896-1.917-2.172
		c-9.855-3.361-14.077-11.019-15.406-20.574c-2.994-21.533-0.922-42.592,6.342-63.141c2.896-8.191,7.214-15.145,15.125-19.295
		c14.272-7.485,27.41,0.07,28.169,16.166c0.081,1.705,0.011,3.416,0.011,5.124C-671.829,1244.298-672.124,1244.42-672.418,1244.542z
		"/>
	<path fill-rule="evenodd" clip-rule="evenodd" fill="#FFFFFF" d="M-535.296,1239.819c-0.003,20.542-16.795,37.478-37.147,37.463
		c-20.949-0.016-37.792-16.759-37.695-37.475c0.098-21.028,16.852-37.549,38.002-37.472
		C-551.979,1202.411-535.292,1219.389-535.296,1239.819z M-572.544,1225.055c-8.295-0.079-15,6.437-15.057,14.633
		c-0.057,8.201,6.552,14.843,14.816,14.893c8.114,0.047,14.744-6.408,14.894-14.502
		C-557.738,1231.869-564.309,1225.132-572.544,1225.055z"/>
	<path fill-rule="evenodd" clip-rule="evenodd" fill="#FFFFFF" d="M-463.645,1374.632c0,5.143,0,9.985,0,15.013
		c-63.894,0-127.663,0-191.585,0c0-5.031,0-9.964,0-15.013C-591.337,1374.632-527.63,1374.632-463.645,1374.632z"/>
	<path fill-rule="evenodd" clip-rule="evenodd" fill="#FFFFFF" d="M-627.96,1313.958c14.741,0.276,26.366,12.298,26.145,27.037
		c-0.221,14.735-12.374,26.245-27.448,25.996c-14.229-0.235-25.943-12.462-25.733-26.858
		C-654.783,1325.467-642.613,1313.685-627.96,1313.958z"/>
	<path fill-rule="evenodd" clip-rule="evenodd" fill="#FFFFFF" d="M-628.501,1282.695c-22.067-0.685-41.839-6.878-57.998-22.315
		c-3.979-3.802-7.41-8.291-10.523-12.854c-3.078-4.51-1.415-10.262,3.084-12.979c4.433-2.676,9.857-1.452,12.839,3.049
		c9.238,13.948,22.56,21.43,38.67,24.444c10.291,1.927,20.592,1.505,30.841-0.408c1.938-0.361,3.075,0.011,4.348,1.737
		c2.239,3.039,4.868,5.833,7.603,8.447c1.288,1.231,1.642,2.346,0.48,3.374c-1.902,1.685-3.935,3.932-6.208,4.356
		C-613.007,1280.974-620.779,1281.7-628.501,1282.695z"/>
	<path fill-rule="evenodd" clip-rule="evenodd" fill="#FFFFFF" d="M-582.051,1281.301c6.198,0,12.287,0,18.62,0
		c0.04,0.391,0.18,1.128,0.181,1.864c0.011,19.429,0.03,38.856-0.007,58.286c-0.01,5.125-2.625,8.651-7.078,9.879
		c-3.983,1.096-8.301-0.483-10.338-4.142c-0.866-1.554-1.47-3.487-1.479-5.252c-0.1-19.916-0.062-39.833-0.05-59.75
		C-582.202,1281.81-582.074,1281.432-582.051,1281.301z"/>
	<path fill-rule="evenodd" clip-rule="evenodd" fill="#FFFFFF" d="M-572.866,1250.941c-6.16-0.037-11.024-5.066-10.955-11.327
		c0.067-6.05,5.015-10.946,11.053-10.936c6.163,0.011,11.234,5.089,11.166,11.178
		C-561.672,1246.046-566.684,1250.979-572.866,1250.941z"/>
</g>
</svg>
