<?xml version="1.0" encoding="utf-8"?>
<!-- Generator: Adobe Illustrator 25.0.0, SVG Export Plug-In . SVG Version: 6.00 Build 0)  -->
<svg version="1.1" xmlns="http://www.w3.org/2000/svg" xmlns:xlink="http://www.w3.org/1999/xlink" x="0px" y="0px"
	 viewBox="0 0 492 492" style="enable-background:new 0 0 492 492;" xml:space="preserve">
<style type="text/css">
	.st0{fill:#141414;}
	.st1{fill-rule:evenodd;clip-rule:evenodd;fill:#141414;}
</style>
<g id="Layer_1">
	<path class="st0" d="M122.48,234.3c-0.06-10.51-0.11-20.35,0.18-28.96c-0.01-0.3,0-0.61,0.03-0.92l0.01,0
		c5.52-47.34,32.1-79.24,65.98-95.68c17.87-8.67,37.73-13,57.57-13c19.84,0,39.71,4.33,57.57,13c33.79,16.4,60.32,48.18,65.94,95.33
		c0.05,0.26,0.08,0.53,0.09,0.8l-5.7,0.21l5.68-0.2c0.31,8.72,0.26,18.72,0.2,29.42c-0.15,26.47-0.31,57.38,5.29,83.88h-258.1
		C122.8,291.69,122.63,260.81,122.48,234.3L122.48,234.3z M378.21,329.59c6.75,22.71,18.95,40.71,40.96,47.37
		c2.52,0.59,4.39,2.85,4.39,5.55c0,3.15-2.55,5.7-5.7,5.7H74.78c-2.5,0.05-4.83-1.56-5.58-4.08c-0.9-3.02,0.83-6.19,3.85-7.09
		l1.62,5.47l-1.6-5.46c11.53-3.42,20.33-9.84,27.05-18.32c6.4-8.08,10.98-18.05,14.26-29.14H378.21z"/>
	<path class="st1" d="M278.91,399.28h-62.6c0.47,7.9,3.87,17.39,9.13,22.64c5.67,5.67,13.51,9.18,22.17,9.18
		c8.66,0,16.5-3.51,22.17-9.18C275.04,416.66,278.43,407.18,278.91,399.28z"/>
	<path class="st1" d="M290.44,91.49c-2.49-5.82-5.72-11.36-9.54-15.05c-8.96-8.66-21.17-13.99-34.64-13.99
		c-13.47,0-25.69,5.33-34.64,13.99c-3.82,3.69-7.05,9.23-9.54,15.05c14.25-4.55,29.22-6.83,44.18-6.83
		C261.22,84.66,276.19,86.94,290.44,91.49z"/>
    
</g>
<g id="Master_Layer_5">
</g>
<g id="Master_Layer_6">
</g>
</svg>
