<?xml version="1.0" encoding="utf-8"?>
<!-- Generator: Adobe Illustrator 16.0.0, SVG Export Plug-In . SVG Version: 6.00 Build 0)  -->
<!DOCTYPE svg PUBLIC "-//W3C//DTD SVG 1.1//EN" "http://www.w3.org/Graphics/SVG/1.1/DTD/svg11.dtd">
<svg version="1.1" id="Layer_1" xmlns="http://www.w3.org/2000/svg" xmlns:xlink="http://www.w3.org/1999/xlink" x="0px" y="0px"
	 width="512px" height="512px" viewBox="-828.505 1048.5 512 512" enable-background="new -828.505 1048.5 512 512"
	 xml:space="preserve">
<circle fill-rule="evenodd" clip-rule="evenodd" fill="#2F2BAD" cx="-572.505" cy="1304.059" r="256"/>
<g>
	<g>
		<g>
			<path fill="#FFFFFF" d="M-529.104,1182.54h-18.852c-3.577-10.104-13.23-17.36-24.548-17.36s-20.971,7.256-24.565,17.36h-18.835
				c-4.791,0-8.68,3.886-8.68,8.681v34.72c0,4.794,3.889,8.68,8.68,8.68h86.801c4.791,0,8.679-3.886,8.679-8.68v-34.72
				C-520.425,1186.426-524.314,1182.54-529.104,1182.54z"/>
		</g>
	</g>
	<g>
		<g>
			<path fill="#FFFFFF" d="M-485.705,1199.899h-17.361v26.041c0,14.356-11.684,26.04-26.039,26.04h-86.801
				c-14.355,0-26.04-11.684-26.04-26.04v-26.041h-17.36c-9.565,0-17.36,7.793-17.36,17.36v208.32c0,9.739,7.622,17.36,17.36,17.36
				h173.601c9.738,0,17.36-7.621,17.36-17.36v-208.32C-468.345,1207.522-475.967,1199.899-485.705,1199.899z M-575.041,1353.604
				l-34.72,34.721c-1.7,1.687-3.924,2.535-6.145,2.535s-4.444-0.849-6.144-2.535l-17.36-17.361c-3.387-3.384-3.387-8.89,0-12.273
				c3.383-3.384,8.887-3.384,12.271,0l11.233,11.215l28.577-28.576c3.384-3.382,8.887-3.382,12.271,0
				C-571.67,1344.714-571.654,1350.199-575.041,1353.604z M-575.041,1284.164l-34.72,34.721c-1.7,1.688-3.924,2.536-6.145,2.536
				s-4.444-0.849-6.144-2.536l-17.36-17.36c-3.387-3.385-3.387-8.884,0-12.274c3.383-3.383,8.887-3.383,12.271,0l11.233,11.217
				l28.577-28.576c3.384-3.383,8.887-3.383,12.271,0C-571.67,1275.28-571.654,1280.761-575.041,1284.164z M-511.745,1373.501h-34.72
				c-4.791,0-8.68-3.887-8.68-8.681c0-4.795,3.889-8.681,8.68-8.681h34.72c4.792,0,8.68,3.886,8.68,8.681
				C-503.065,1369.614-506.954,1373.501-511.745,1373.501z M-511.745,1304.061h-34.72c-4.791,0-8.68-3.887-8.68-8.681
				s3.889-8.68,8.68-8.68h34.72c4.792,0,8.68,3.886,8.68,8.68S-506.954,1304.061-511.745,1304.061z"/>
		</g>
	</g>
</g>
</svg>
