<?xml version="1.0" encoding="utf-8"?>
<!-- Generator: Adobe Illustrator 16.0.0, SVG Export Plug-In . SVG Version: 6.00 Build 0)  -->
<!DOCTYPE svg PUBLIC "-//W3C//DTD SVG 1.1//EN" "http://www.w3.org/Graphics/SVG/1.1/DTD/svg11.dtd">
<svg version="1.1" id="Layer_1" xmlns="http://www.w3.org/2000/svg" xmlns:xlink="http://www.w3.org/1999/xlink" x="0px" y="0px"
	 width="512px" height="512px" viewBox="-828.505 1048.5 512 512" enable-background="new -828.505 1048.5 512 512"
	 xml:space="preserve">
<circle fill-rule="evenodd" clip-rule="evenodd" fill="#2F2BAD" cx="-572.505" cy="1304.499" r="256"/>
<g>
	<path fill="#FFFFFF" d="M-572.506,1300.233c31.007,0,56.146-30.532,56.146-68.194c0-37.663-8.255-68.194-56.146-68.194
		c-47.893,0-56.146,30.531-56.146,68.194C-628.65,1269.701-603.513,1300.233-572.506,1300.233z"/>
	<path fill="#FFFFFF" d="M-466.582,1401.604c-1.039-65.609-9.607-84.304-75.177-96.139c0,0-9.232,11.761-30.745,11.761
		s-30.743-11.761-30.743-11.761c-64.855,11.704-73.947,30.123-75.142,94.007c-0.098,5.217-0.142,5.49-0.16,4.885
		c0.003,1.135,0.008,3.233,0.008,6.893c0,0,15.611,31.471,106.037,31.471s106.039-31.471,106.039-31.471
		c0-2.351,0.001-3.986,0.003-5.098C-466.479,1406.526-466.516,1405.8-466.582,1401.604z"/>
</g>
</svg>
